# Blender v2.75 (sub 0) OBJ File: 'wiezyczna.blend'
# www.blender.org
o Cylinder
v -0.000000 0.535192 -3.846246
v -0.000000 0.468540 -2.369195
v 0.198357 0.482043 -3.846246
v 0.165031 0.424320 -2.369195
v 0.343565 0.336835 -3.846246
v 0.285842 0.303509 -2.369195
v 0.396714 0.138478 -3.846246
v 0.330062 0.138478 -2.369195
v 0.343565 -0.059879 -3.846246
v 0.285842 -0.026553 -2.369195
v 0.198357 -0.205086 -3.846246
v 0.165031 -0.147364 -2.369195
v 0.000000 -0.258236 -3.846246
v 0.000000 -0.191584 -2.369195
v -0.198357 -0.205086 -3.846246
v -0.165031 -0.147364 -2.369195
v -0.343564 -0.059879 -3.846246
v -0.285842 -0.026553 -2.369195
v -0.396714 0.138478 -3.846246
v -0.330062 0.138478 -2.369195
v -0.343565 0.336835 -3.846246
v -0.285842 0.303509 -2.369195
v -0.198357 0.482042 -3.846246
v -0.165031 0.424320 -2.369195
v -0.000000 0.379487 -3.846246
v 0.120504 0.347198 -3.846246
v 0.208720 0.258982 -3.846246
v 0.241009 0.138478 -3.846246
v 0.208720 0.017974 -3.846246
v 0.120504 -0.070242 -3.846246
v 0.000000 -0.102531 -3.846246
v -0.120504 -0.070242 -3.846246
v -0.208720 0.017974 -3.846246
v -0.241009 0.138478 -3.846246
v -0.208720 0.258982 -3.846246
v -0.120505 0.347198 -3.846246
v -0.000000 0.338995 -3.029319
v 0.100258 0.312131 -3.029319
v 0.173653 0.238737 -3.029319
v 0.200517 0.138478 -3.029319
v 0.173653 0.038220 -3.029319
v 0.100258 -0.035175 -3.029319
v 0.000000 -0.062039 -3.029319
v -0.100258 -0.035175 -3.029319
v -0.173653 0.038220 -3.029319
v -0.200517 0.138478 -3.029319
v -0.173653 0.238736 -3.029319
v -0.100259 0.312131 -3.029319
v -0.000000 0.338995 -3.029319
v 0.100258 0.312131 -3.029319
v 0.173653 0.238737 -3.029319
v 0.200517 0.138478 -3.029319
v 0.173653 0.038220 -3.029319
v 0.100258 -0.035175 -3.029319
v 0.000000 -0.062039 -3.029319
v -0.100258 -0.035175 -3.029319
v -0.173653 0.038220 -3.029319
v -0.200517 0.138478 -3.029319
v -0.173653 0.238736 -3.029319
v -0.100259 0.312131 -3.029319
v -0.000000 0.338995 -3.029319
v 0.100258 0.312131 -3.029319
v 0.173653 0.238737 -3.029319
v 0.200517 0.138478 -3.029319
v 0.173653 0.038220 -3.029319
v 0.100258 -0.035175 -3.029319
v 0.000000 -0.062039 -3.029319
v -0.100258 -0.035175 -3.029319
v -0.173653 0.038220 -3.029319
v -0.200517 0.138478 -3.029319
v -0.173653 0.238736 -3.029319
v -0.100259 0.312131 -3.029319
v -0.000000 0.338995 -2.014209
v 0.100258 0.312131 -2.014209
v 0.173653 0.238737 -2.014209
v 0.200517 0.138478 -2.014209
v 0.173653 0.038220 -2.014209
v 0.100258 -0.035175 -2.014209
v 0.000000 -0.062039 -2.014209
v -0.100258 -0.035175 -2.014209
v -0.173653 0.038220 -2.014209
v -0.200517 0.138478 -2.014209
v -0.173653 0.238736 -2.014209
v -0.100259 0.312131 -2.014209
v -0.000000 0.468540 -3.250059
v 0.165031 0.424320 -3.250059
v 0.285842 0.303509 -3.250059
v 0.330062 0.138478 -3.250059
v 0.285842 -0.026553 -3.250059
v 0.165031 -0.147364 -3.250059
v 0.000000 -0.191584 -3.250059
v -0.165031 -0.147364 -3.250059
v -0.285842 -0.026553 -3.250059
v -0.330062 0.138478 -3.250059
v -0.285842 0.303509 -3.250059
v -0.165031 0.424320 -3.250059
v 0.198357 0.482043 -3.295681
v 0.343565 0.336835 -3.295681
v 0.396714 0.138478 -3.295681
v 0.343565 -0.059879 -3.295681
v 0.198357 -0.205086 -3.295681
v 0.000000 -0.258236 -3.295681
v -0.198357 -0.205086 -3.295681
v -0.343564 -0.059879 -3.295681
v -0.396714 0.138478 -3.295681
v -0.343565 0.336835 -3.295681
v -0.198357 0.482042 -3.295681
v -0.000000 0.535192 -3.295681
vn 0.258800 0.965900 -0.000000
vn 0.707100 0.707100 -0.000000
vn 0.965900 0.258800 -0.000000
vn 0.965900 -0.258800 0.000000
vn 0.707100 -0.707100 0.000000
vn 0.258800 -0.965900 0.000000
vn -0.258800 -0.965900 0.000000
vn -0.707100 -0.707100 0.000000
vn -0.965900 -0.258800 0.000000
vn -0.965900 0.258800 -0.000000
vn -0.707100 0.707100 0.000000
vn -0.258800 0.965900 0.000000
vn 0.000000 -0.000000 -1.000000
vn 0.706300 0.706300 -0.047800
vn -0.706300 0.706300 -0.047800
vn 0.258500 -0.964800 -0.047800
vn -0.706300 -0.706300 -0.047800
vn 0.964800 0.258500 -0.047800
vn -0.258500 0.964800 -0.047800
vn -0.964800 -0.258500 -0.047800
vn 0.964800 -0.258500 -0.047800
vn 0.258500 0.964800 -0.047800
vn -0.964800 0.258500 -0.047800
vn 0.706300 -0.706300 -0.047800
vn -0.258500 -0.964800 -0.047800
vn 0.000000 0.000000 1.000000
vn -0.149600 0.558500 0.815900
vn -0.408800 0.408800 0.815900
vn -0.558500 0.149600 0.815900
vn -0.558500 -0.149600 0.815900
vn -0.408800 -0.408800 0.815900
vn -0.149600 -0.558500 0.815900
vn 0.149600 -0.558500 0.815900
vn 0.408800 -0.408800 0.815900
vn 0.558500 -0.149600 0.815900
vn 0.558500 0.149600 0.815900
vn 0.408800 0.408800 0.815900
vn 0.149600 0.558500 0.815900
s off
f 2//1 4//1 86//1
f 86//2 4//2 6//2
f 87//3 6//3 8//3
f 8//4 10//4 89//4
f 10//5 12//5 90//5
f 90//6 12//6 14//6
f 14//7 16//7 92//7
f 92//8 16//8 18//8
f 18//9 20//9 94//9
f 20//10 22//10 95//10
f 22//11 24//11 96//11
f 24//12 2//12 85//12
f 13//13 31//13 30//13
f 11//13 30//13 29//13
f 7//13 9//13 29//13
f 1//13 25//13 36//13
f 1//13 3//13 26//13
f 7//13 28//13 27//13
f 21//13 23//13 36//13
f 5//13 27//13 26//13
f 19//13 21//13 35//13
f 17//13 19//13 34//13
f 17//13 33//13 32//13
f 15//13 32//13 31//13
f 33//14 45//14 44//14
f 30//15 42//15 41//15
f 25//16 37//16 48//16
f 27//17 39//17 38//17
f 34//18 46//18 45//18
f 31//19 43//19 42//19
f 28//20 40//20 39//20
f 35//21 47//21 46//21
f 32//22 44//22 43//22
f 29//23 41//23 40//23
f 36//24 48//24 47//24
f 26//25 38//25 37//25
f 37//26 38//26 50//26
f 44//26 45//26 57//26
f 41//26 42//26 54//26
f 48//26 37//26 49//26
f 38//26 39//26 51//26
f 45//26 46//26 58//26
f 42//26 43//26 55//26
f 39//26 40//26 52//26
f 46//26 47//26 59//26
f 43//26 44//26 56//26
f 40//26 41//26 53//26
f 47//26 48//26 60//26
f 59//26 60//26 72//26
f 49//26 50//26 62//26
f 56//26 57//26 69//26
f 53//26 54//26 66//26
f 60//26 49//26 61//26
f 50//26 51//26 63//26
f 57//26 58//26 70//26
f 54//26 55//26 67//26
f 51//26 52//26 64//26
f 58//26 59//26 71//26
f 55//26 56//26 68//26
f 52//26 53//26 65//26
f 65//10 77//10 76//10
f 72//5 84//5 83//5
f 62//7 74//7 73//7
f 69//2 81//2 80//2
f 66//11 78//11 77//11
f 61//6 73//6 84//6
f 63//8 75//8 74//8
f 70//3 82//3 81//3
f 67//12 79//12 78//12
f 64//9 76//9 75//9
f 71//4 83//4 82//4
f 68//1 80//1 79//1
f 96//27 85//27 108//27
f 95//28 96//28 107//28
f 94//29 95//29 106//29
f 93//30 94//30 105//30
f 103//31 92//31 93//31
f 91//32 92//32 103//32
f 90//33 91//33 102//33
f 89//34 90//34 101//34
f 88//35 89//35 100//35
f 87//36 88//36 99//36
f 86//37 87//37 98//37
f 85//38 86//38 97//38
f 108//1 97//1 3//1
f 3//2 97//2 98//2
f 98//3 99//3 7//3
f 7//4 99//4 100//4
f 100//5 101//5 11//5
f 101//6 102//6 13//6
f 102//7 103//7 15//7
f 15//8 103//8 104//8
f 104//9 105//9 19//9
f 105//10 106//10 21//10
f 106//11 107//11 23//11
f 107//12 108//12 1//12
f 85//1 2//1 86//1
f 87//2 86//2 6//2
f 88//3 87//3 8//3
f 88//4 8//4 89//4
f 89//5 10//5 90//5
f 91//6 90//6 14//6
f 91//7 14//7 92//7
f 93//8 92//8 18//8
f 93//9 18//9 94//9
f 94//10 20//10 95//10
f 95//11 22//11 96//11
f 96//12 24//12 85//12
f 11//13 13//13 30//13
f 9//13 11//13 29//13
f 28//13 7//13 29//13
f 23//13 1//13 36//13
f 25//13 1//13 26//13
f 5//13 7//13 27//13
f 35//13 21//13 36//13
f 3//13 5//13 26//13
f 34//13 19//13 35//13
f 33//13 17//13 34//13
f 15//13 17//13 32//13
f 13//13 15//13 31//13
f 32//14 33//14 44//14
f 29//15 30//15 41//15
f 36//16 25//16 48//16
f 26//17 27//17 38//17
f 33//18 34//18 45//18
f 30//19 31//19 42//19
f 27//20 28//20 39//20
f 34//21 35//21 46//21
f 31//22 32//22 43//22
f 28//23 29//23 40//23
f 35//24 36//24 47//24
f 25//25 26//25 37//25
f 49//26 37//26 50//26
f 56//26 44//26 57//26
f 53//26 41//26 54//26
f 60//26 48//26 49//26
f 50//26 38//26 51//26
f 57//26 45//26 58//26
f 54//26 42//26 55//26
f 51//26 39//26 52//26
f 58//26 46//26 59//26
f 55//26 43//26 56//26
f 52//26 40//26 53//26
f 59//26 47//26 60//26
f 71//26 59//26 72//26
f 61//26 49//26 62//26
f 68//26 56//26 69//26
f 65//26 53//26 66//26
f 72//26 60//26 61//26
f 62//26 50//26 63//26
f 69//26 57//26 70//26
f 66//26 54//26 67//26
f 63//26 51//26 64//26
f 70//26 58//26 71//26
f 67//26 55//26 68//26
f 64//26 52//26 65//26
f 64//10 65//10 76//10
f 71//5 72//5 83//5
f 61//7 62//7 73//7
f 68//2 69//2 80//2
f 65//11 66//11 77//11
f 72//6 61//6 84//6
f 62//8 63//8 74//8
f 69//3 70//3 81//3
f 66//12 67//12 78//12
f 63//9 64//9 75//9
f 70//4 71//4 82//4
f 67//1 68//1 79//1
f 107//27 96//27 108//27
f 106//28 95//28 107//28
f 105//29 94//29 106//29
f 104//30 93//30 105//30
f 104//31 103//31 93//31
f 102//32 91//32 103//32
f 101//33 90//33 102//33
f 100//34 89//34 101//34
f 99//35 88//35 100//35
f 98//36 87//36 99//36
f 97//37 86//37 98//37
f 108//38 85//38 97//38
f 1//1 108//1 3//1
f 5//2 3//2 98//2
f 5//3 98//3 7//3
f 9//4 7//4 100//4
f 9//5 100//5 11//5
f 11//6 101//6 13//6
f 13//7 102//7 15//7
f 17//8 15//8 104//8
f 17//9 104//9 19//9
f 19//10 105//10 21//10
f 21//11 106//11 23//11
f 23//12 107//12 1//12
o Cube
v 1.000000 -0.324176 -2.300513
v 1.000000 -0.324176 1.392045
v -1.000000 -0.324176 1.392044
v -1.000000 -0.324176 -2.300514
v 0.745962 0.549998 -2.012641
v 0.999999 0.549998 1.517727
v -1.000000 0.549998 1.517726
v -0.745962 0.549998 -2.012641
v 1.553586 -0.324176 -0.505909
v 1.553586 -0.324176 0.505909
v -1.553586 -0.324176 0.505908
v -1.553586 -0.324176 -0.505909
v 1.553586 0.652828 -0.505908
v 1.553586 0.652828 0.505910
v -1.553587 0.652828 0.505908
v -1.553586 0.652828 -0.505909
v 0.830217 -0.249966 -2.276075
v -0.830216 -0.249966 -2.276076
v 0.619310 0.475788 -2.037079
v -0.619310 0.475788 -2.037079
v 0.769043 -0.223228 -2.554926
v -0.769043 -0.223228 -2.554927
v 0.573677 0.449049 -2.210294
v -0.573677 0.449049 -2.210294
v 0.905151 0.781144 0.016765
v 0.582620 0.721233 0.606271
v 0.434613 0.721233 -1.450595
v -0.434613 0.721233 -1.450595
v -0.582621 0.721233 0.606270
v -0.905152 0.781144 -0.572741
v 0.905152 0.781144 -0.572741
v -0.905152 0.781144 0.016764
v 0.905151 1.020048 0.019401
v 0.582620 0.960137 0.608907
v 0.434613 0.960137 -1.447959
v -0.434613 0.960137 -1.447959
v -0.582621 0.960137 0.608906
v -0.905152 1.020048 -0.570105
v 0.905152 1.020048 -0.570105
v -0.905152 1.020048 0.019401
vn 0.000000 -1.000000 0.000000
vn -0.084600 0.985600 0.146400
vn 0.878100 -0.068100 0.473500
vn -0.000000 -0.142300 0.989800
vn -0.881400 -0.000000 -0.472400
vn 0.000000 0.312800 -0.949800
vn -0.878100 -0.068100 0.473500
vn -1.000000 -0.000000 -0.000000
vn 0.881400 0.000000 -0.472400
vn 1.000000 0.000000 0.000000
vn 0.000000 0.956600 -0.291400
vn -0.208600 0.961800 -0.177500
vn 0.000000 -0.995400 -0.095400
vn 0.000000 0.456200 -0.889900
vn 0.000000 0.988300 -0.152600
vn 0.920200 0.353500 -0.168000
vn -0.889600 0.353700 -0.289000
vn 0.877500 -0.005300 0.479600
vn -0.000000 -0.011000 0.999900
vn 0.881200 0.005200 -0.472700
vn 0.208600 0.961800 -0.177500
vn -0.000000 0.982800 0.184600
vn -0.194100 0.981000 -0.000000
vn 0.084600 0.985600 0.146400
vn 0.194100 0.981000 0.000000
vn -0.000000 0.994900 0.101100
vn 0.000000 0.997700 -0.068100
vn 0.000000 1.000000 0.000000
vn -0.881200 0.005200 -0.472700
vn 0.000000 0.011000 -0.999900
vn -0.877500 -0.005300 0.479600
vn 0.848100 0.000000 0.529800
vn -0.894800 0.350900 -0.276000
vn -0.848100 -0.000000 0.529800
vn 0.894800 0.350900 -0.276000
vn 0.889600 0.353700 -0.289000
vn -0.920200 0.353500 -0.168000
s off
f 118//39 110//39 111//39
f 123//40 115//40 137//40
f 122//41 114//41 110//41
f 114//42 115//42 111//42
f 120//43 124//43 116//43
f 113//44 109//44 125//44
f 111//45 115//45 123//45
f 119//46 123//46 124//46
f 113//47 121//47 117//47
f 121//48 122//48 118//48
f 113//49 116//49 136//49
f 124//50 138//50 136//50
f 109//39 117//39 120//39
f 118//39 119//39 120//39
f 126//51 130//51 129//51
f 113//44 127//44 128//44
f 116//44 128//44 126//44
f 109//44 112//44 126//44
f 129//52 130//52 132//52
f 128//53 127//53 131//53
f 125//54 129//54 131//54
f 126//55 128//55 132//55
f 133//56 141//56 142//56
f 134//57 142//57 145//57
f 139//58 135//58 143//58
f 121//59 113//59 135//59
f 115//60 114//60 134//60
f 124//61 123//61 140//61
f 122//62 133//62 134//62
f 121//63 139//63 133//63
f 141//64 148//64 145//64
f 144//65 146//65 147//65
f 147//66 146//66 148//66
f 140//46 148//46 146//46
f 133//48 139//48 147//48
f 138//67 146//67 144//67
f 136//68 144//68 143//68
f 140//69 137//69 145//69
f 119//39 118//39 111//39
f 140//40 123//40 137//40
f 118//70 122//70 110//70
f 110//42 114//42 111//42
f 112//71 120//71 116//71
f 127//44 113//44 125//44
f 119//72 111//72 123//72
f 120//46 119//46 124//46
f 109//73 113//73 117//73
f 117//48 121//48 118//48
f 135//49 113//49 136//49
f 116//50 124//50 136//50
f 112//39 109//39 120//39
f 117//39 118//39 120//39
f 125//51 126//51 129//51
f 116//44 113//44 128//44
f 112//44 116//44 126//44
f 125//44 109//44 126//44
f 131//52 129//52 132//52
f 132//53 128//53 131//53
f 127//74 125//74 131//74
f 130//75 126//75 132//75
f 134//56 133//56 142//56
f 137//57 134//57 145//57
f 147//58 139//58 143//58
f 139//59 121//59 135//59
f 137//60 115//60 134//60
f 138//61 124//61 140//61
f 114//62 122//62 134//62
f 122//63 121//63 133//63
f 142//64 141//64 145//64
f 143//65 144//65 147//65
f 141//66 147//66 148//66
f 138//46 140//46 146//46
f 141//48 133//48 147//48
f 136//67 138//67 144//67
f 135//68 136//68 143//68
f 148//69 140//69 145//69
